<svg version="1.1" id="Layer_1" xmlns="http://www.w3.org/2000/svg" xmlns:xlink="http://www.w3.org/1999/xlink" x="0px" y="0px"
	 width="100%" viewBox="0 0 512 512" enable-background="new 0 0 512 512" xml:space="preserve">
<path fill="#FFFFFF" opacity="1.000000" stroke="none" 
	d="
M1.000000,368.000000 
	C1.000000,245.705795 1.000000,123.411591 1.000000,1.058690 
	C171.572937,1.058690 342.145905,1.058690 513.000000,1.058690 
	C513.000000,153.357300 513.000000,305.714752 512.642822,458.383423 
	C509.855957,444.903778 501.819397,434.584015 491.292572,426.154266 
	C480.320740,417.368195 471.734192,406.862305 469.229309,392.986145 
	C467.111694,381.255585 467.249268,369.135315 465.931946,357.238098 
	C464.549347,344.751221 463.460815,332.139832 460.763947,319.909119 
	C454.719666,292.497223 443.671753,266.848358 429.664154,242.653717 
	C417.816620,222.190079 402.990448,203.782471 386.374420,186.908249 
	C374.926880,175.282867 363.340576,163.793671 351.766083,152.294144 
	C347.924011,148.476913 343.925720,144.816925 340.436218,141.034409 
	C342.912323,140.905869 344.951111,140.827972 347.291687,140.826752 
	C348.057190,140.598206 348.520905,140.292999 348.991241,139.993698 
	C348.997864,139.999619 348.988861,139.983368 349.360748,139.981628 
	C360.155853,136.729523 364.894440,125.333023 360.296356,115.579193 
	C356.078033,106.630821 348.524658,105.077927 340.099304,104.591026 
	C340.689362,103.810410 341.215729,103.388321 341.626678,102.874023 
	C353.552094,87.950256 365.508118,73.050652 377.364014,58.071789 
	C383.365784,50.489094 387.524750,42.508286 385.119507,32.109131 
	C382.615082,21.281439 374.480164,13.365535 362.860931,12.582947 
	C347.643097,12.150039 332.674591,11.988721 317.709229,12.140330 
	C316.259186,12.155019 314.257477,13.796090 313.487335,15.212575 
	C310.012695,21.603260 306.889404,28.184977 303.417053,35.143646 
	C296.487762,28.137407 289.921387,21.304993 283.092377,14.745973 
	C281.614380,13.326406 279.201172,12.140661 277.203979,12.117457 
	C259.735077,11.914491 242.257431,11.745297 224.793777,12.110643 
	C216.412613,12.285980 209.029343,15.321977 203.741043,22.551050 
	C196.418747,32.560543 196.605057,44.783585 203.820190,54.173901 
	C216.963242,71.279243 230.551865,88.042213 243.533447,104.956825 
	C240.725266,105.351349 238.338211,105.737061 235.578079,106.079193 
	C224.445892,108.991585 219.361084,118.512360 222.979462,129.377502 
	C227.115341,138.874771 234.589127,141.758316 243.890808,141.394043 
	C240.494705,145.124146 237.199310,148.540543 233.597717,152.085693 
	C219.645996,165.857941 205.536850,179.075714 192.497894,193.276138 
	C181.556671,205.191986 171.077148,217.707153 161.854904,230.973114 
	C153.807526,242.549072 147.799561,255.542801 140.430862,267.936035 
	C130.152161,267.967285 120.333115,267.976349 110.514069,267.977203 
	C86.382423,267.979340 62.248455,267.784912 38.120312,268.075531 
	C28.881947,268.186798 24.549990,270.700897 24.098698,280.488800 
	C24.092443,288.318604 24.146982,295.684967 24.138786,303.452271 
	C24.286709,310.519623 27.053038,314.231598 33.219704,314.919098 
	C39.735466,315.645538 46.322731,315.730652 52.736954,316.401093 
	C48.162239,318.761993 47.640949,322.884979 47.087189,327.485138 
	C47.084824,335.315674 47.139305,342.681915 47.133823,350.428406 
	C49.022831,354.200989 50.971802,357.593292 52.457100,360.981445 
	C39.725128,360.976746 27.456810,360.961121 15.188554,360.982147 
	C9.323584,360.992188 4.284151,362.739044 1.000000,368.000000 
z"/>
<path fill="#B06328" opacity="1.000000" stroke="none" 
	d="
M339.998871,141.085052 
	C343.925720,144.816925 347.924011,148.476913 351.766083,152.294144 
	C363.340576,163.793671 374.926880,175.282867 386.374420,186.908249 
	C402.990448,203.782471 417.816620,222.190079 429.664154,242.653717 
	C443.671753,266.848358 454.719666,292.497223 460.763947,319.909119 
	C463.460815,332.139832 464.549347,344.751221 465.931946,357.238098 
	C467.249268,369.135315 467.111694,381.255585 469.229309,392.986145 
	C471.734192,406.862305 480.320740,417.368195 491.292572,426.154266 
	C501.819397,434.584015 509.855957,444.903778 512.642822,458.847290 
	C513.000000,465.687653 513.000000,472.375275 512.656128,479.652954 
	C511.145874,482.824463 509.979401,485.405884 508.622406,488.119690 
	C508.197937,488.476349 508.064667,488.749695 508.019836,489.039612 
	C508.007660,489.007172 508.073914,489.027618 507.829315,489.129089 
	C507.397186,489.521240 507.209625,489.811920 506.985840,490.327026 
	C506.949585,490.551483 506.809418,490.984039 506.616272,491.120911 
	C506.186890,491.488678 506.052216,491.768433 505.950684,492.323364 
	C505.698608,492.838135 505.436188,492.994995 504.726532,493.014221 
	C503.579193,493.704651 502.800446,494.401123 501.952698,495.323761 
	C501.700012,495.838531 501.437592,495.995728 500.704285,496.015869 
	C490.195007,501.074554 479.306915,500.000336 468.553345,500.000244 
	C404.272705,499.999756 339.992096,499.991913 275.711487,500.039337 
	C273.807007,500.040741 271.903015,500.625763 269.530334,500.947998 
	C212.041870,500.969940 155.021896,500.982544 97.585266,500.978729 
	C95.526108,500.922638 93.883575,500.883026 91.998093,500.591309 
	C86.584663,496.867035 81.414207,493.394806 76.149124,489.569092 
	C74.680176,485.508911 73.305847,481.802246 72.219864,477.782654 
	C74.646561,477.312775 76.784882,477.018799 78.923271,477.018372 
	C192.569687,476.996185 306.216125,477.000275 419.862549,476.996918 
	C434.694946,476.996460 446.462738,468.776245 451.494720,454.933838 
	C455.428375,444.112732 452.041229,432.663177 442.760681,425.170685 
	C440.312042,423.193848 437.726532,421.290863 435.661926,418.949982 
	C424.765839,406.595703 419.076477,392.244507 420.028717,375.630249 
	C421.026550,358.220154 420.977936,340.803101 418.792725,323.529510 
	C416.060669,301.932709 410.787354,280.935516 402.146729,260.811981 
	C392.617554,238.619171 380.170013,218.359222 363.378998,200.974030 
	C349.836609,186.952423 335.599701,173.596451 322.206085,159.438873 
	C316.972626,153.906906 311.668823,150.640167 304.008698,151.525879 
	C303.996826,147.725296 304.004395,144.380173 304.383667,141.015656 
	C305.497925,140.951263 306.240448,140.906281 307.451172,140.910370 
	C318.266052,140.949249 328.612762,140.939026 339.218994,140.969971 
	C339.651978,141.035782 339.825439,141.060410 339.998871,141.085052 
z"/>
<path fill="#FFFFFF" opacity="1.000000" stroke="none" 
	d="
M501.096497,496.021545 
	C501.437592,495.995728 501.700012,495.838531 502.281921,495.276184 
	C503.485077,494.341705 504.290070,493.680969 505.095093,493.020203 
	C505.436188,492.994995 505.698608,492.838135 506.203766,492.233978 
	C506.619934,491.606873 506.714661,491.295471 506.809418,490.984039 
	C506.809418,490.984039 506.949585,490.551483 507.240112,490.237274 
	C507.711731,489.624573 507.892822,489.326111 508.073914,489.027618 
	C508.073914,489.027618 508.007660,489.007172 508.272095,488.958710 
	C508.628662,488.602600 508.720825,488.294983 508.812958,487.987335 
	C509.979401,485.405884 511.145874,482.824463 512.656128,480.121521 
	C513.000000,490.991425 513.000000,501.982819 513.000000,512.968628 
	C342.333344,512.963074 171.666656,512.963074 1.000000,512.963074 
	C1.000000,507.263916 1.000000,501.601654 1.330180,495.582153 
	C3.891933,499.953125 8.103060,501.861420 12.842580,501.882782 
	C38.567135,501.998688 64.292824,501.863312 90.456009,501.892334 
	C93.266319,501.926971 95.638733,501.883759 98.475197,501.904205 
	C142.668808,501.978577 186.398361,502.002960 230.127930,501.991669 
	C243.426056,501.988251 256.724152,501.886353 270.484833,501.899200 
	C341.984772,501.978607 413.022247,502.054199 484.059174,501.880371 
	C490.122101,501.865540 496.430145,500.900513 501.096497,496.021545 
z"/>
<path fill="#F19921" opacity="1.000000" stroke="none" 
	d="
M1.000000,402.000000 
	C1.000000,400.610992 1.000000,399.222015 1.468604,397.409668 
	C7.734406,396.983856 13.541772,396.772369 19.325172,397.053619 
	C23.077316,397.236084 24.149752,395.947296 24.108364,392.254974 
	C24.035667,385.769165 22.618637,378.960236 27.534191,373.143921 
	C29.948318,373.423584 31.970840,373.727692 34.149471,374.381165 
	C34.870071,376.928558 35.766579,379.102997 35.924942,381.329926 
	C36.194477,385.120026 36.169621,388.953064 35.948162,392.749390 
	C35.759392,395.985321 36.896076,397.198730 40.181854,397.033875 
	C44.642345,396.810059 49.149059,396.675568 53.586830,397.063965 
	C58.061943,397.455627 59.118160,395.824005 59.158497,391.499481 
	C59.212841,385.673462 60.340855,379.857483 61.380280,373.982086 
	C64.165749,373.963806 66.579025,374.000580 69.148346,374.386200 
	C69.867325,376.933990 70.761269,379.109467 70.919266,381.337158 
	C71.188110,385.127441 71.165031,388.960571 70.942139,392.756805 
	C70.751465,396.004150 71.912109,397.195923 75.186089,397.033386 
	C79.646881,396.811920 84.153923,396.673035 88.591209,397.064514 
	C93.081375,397.460632 94.108063,395.800293 94.152191,391.491760 
	C94.211868,385.665985 95.338264,379.851135 96.387482,373.974182 
	C98.797890,373.667297 100.827797,373.417908 102.950211,373.513672 
	C106.997803,378.269226 105.916046,383.678070 105.976242,388.842804 
	C106.088951,398.513214 105.106659,396.734009 114.046791,397.402985 
	C112.414413,401.523224 110.790588,405.251892 108.702377,408.957397 
	C104.622581,408.643768 101.004021,408.069153 97.392281,408.109192 
	C74.550262,408.362274 51.709740,408.751556 28.410332,409.056763 
	C23.818546,409.012238 19.684998,408.981781 15.551800,409.007446 
	C9.549047,409.044708 4.441418,407.262634 1.000000,402.000000 
z"/>
<path fill="#F19921" opacity="1.000000" stroke="none" 
	d="
M90.018112,501.814453 
	C64.292824,501.863312 38.567135,501.998688 12.842580,501.882782 
	C8.103060,501.861420 3.891933,499.953125 1.330180,495.112427 
	C1.000000,493.611115 1.000000,492.222198 1.468621,490.411713 
	C7.592075,489.988617 13.264229,489.715057 18.896139,490.073608 
	C23.226574,490.349274 24.048416,488.639038 24.148115,484.661865 
	C24.295351,478.788330 25.354900,472.937653 26.466370,467.047974 
	C29.261393,467.023285 31.615992,467.027863 34.132881,467.379974 
	C34.863045,469.926056 35.764984,472.100800 35.924225,474.328583 
	C36.195362,478.121643 36.170116,481.958099 35.947777,485.757507 
	C35.758015,489.000275 36.903629,490.193817 40.187862,490.041840 
	C44.984570,489.819855 49.809994,489.787628 54.602615,490.050079 
	C58.167004,490.245239 58.965405,488.847076 59.118156,485.479950 
	C59.397320,479.326202 60.350342,473.203064 61.457554,467.039978 
	C63.927528,467.012756 65.962257,467.012665 68.150894,467.259796 
	C68.849197,467.660492 69.393600,467.813965 70.113098,468.339783 
	C70.527710,471.805725 70.767235,474.899414 71.007088,478.456024 
	C71.007416,482.487335 71.007416,486.055695 71.007416,489.922577 
	C73.298088,489.922577 74.770912,489.922577 76.243744,489.922577 
	C81.414207,493.394806 86.584663,496.867035 91.685410,500.653381 
	C91.083160,501.249786 90.550636,501.532104 90.018112,501.814453 
z"/>
<path fill="#FFCB5B" opacity="1.000000" stroke="none" 
	d="
M33.993362,374.031769 
	C31.970840,373.727692 29.948318,373.423584 27.052765,373.086700 
	C17.786489,373.035919 9.393245,373.017944 1.000000,373.000000 
	C1.000000,371.611115 1.000000,370.222198 1.000000,368.416656 
	C4.284151,362.739044 9.323584,360.992188 15.188554,360.982147 
	C27.456810,360.961121 39.725128,360.976746 52.907288,360.990601 
	C61.756145,361.311859 69.691833,361.888336 77.625984,361.867889 
	C91.039658,361.833344 104.452347,361.421143 117.890396,361.574158 
	C117.580963,365.643005 117.246590,369.305389 116.455429,372.982910 
	C111.618332,373.054840 107.238014,373.111664 102.857704,373.168488 
	C100.827797,373.417908 98.797890,373.667297 96.097488,373.669983 
	C89.651970,373.285431 83.875679,373.011383 78.102448,373.065277 
	C75.062973,373.093597 72.028847,373.694855 68.992302,374.037384 
	C66.579025,374.000580 64.165749,373.963806 61.091072,373.676514 
	C54.655117,373.287262 48.879333,373.012756 43.106514,373.065094 
	C40.066124,373.092651 37.030910,373.691101 33.993362,374.031769 
z"/>
<path fill="#FFFFFF" opacity="1.000000" stroke="none" 
	d="
M1.000000,402.468658 
	C4.441418,407.262634 9.549047,409.044708 15.551800,409.007446 
	C19.684998,408.981781 23.818546,409.012238 28.308210,409.375397 
	C25.676563,412.512573 23.424900,415.615021 24.090794,420.487244 
	C24.083197,428.315979 24.134970,435.680878 24.124878,443.441162 
	C25.682678,447.219360 27.302341,450.602112 28.458767,453.980164 
	C23.697920,453.974976 19.399824,453.933258 15.102819,453.984039 
	C9.289047,454.052734 4.230297,455.706177 1.000000,461.000000 
	C1.000000,441.645782 1.000000,422.291534 1.000000,402.468658 
z"/>
<path fill="#FFCB5B" opacity="1.000000" stroke="none" 
	d="
M1.000000,461.428467 
	C4.230297,455.706177 9.289047,454.052734 15.102819,453.984039 
	C19.399824,453.933258 23.697920,453.974976 28.887100,453.992737 
	C32.891994,454.337341 36.002728,454.914917 39.119106,454.947174 
	C50.411922,455.063995 61.706631,454.997803 72.973557,455.401978 
	C72.279984,459.197540 71.613480,462.591827 70.613800,465.994537 
	C69.519424,466.339539 68.758209,466.676056 67.996994,467.012573 
	C65.962257,467.012665 63.927528,467.012756 61.168968,466.729797 
	C51.620293,466.641998 42.795444,466.837250 33.970592,467.032471 
	C31.615992,467.027863 29.261393,467.023285 26.182325,466.737549 
	C17.305239,466.637573 9.152619,466.818787 1.000000,467.000000 
	C1.000000,465.285645 1.000000,463.571289 1.000000,461.428467 
z"/>
<path fill="#F6B545" opacity="1.000000" stroke="none" 
	d="
M1.000000,373.468628 
	C9.393245,373.017944 17.786489,373.035919 26.661160,373.111145 
	C22.618637,378.960236 24.035667,385.769165 24.108364,392.254974 
	C24.149752,395.947296 23.077316,397.236084 19.325172,397.053619 
	C13.541772,396.772369 7.734406,396.983856 1.468604,396.993164 
	C1.000000,389.312408 1.000000,381.624847 1.000000,373.468628 
z"/>
<path fill="#F6B545" opacity="1.000000" stroke="none" 
	d="
M1.000000,467.468628 
	C9.152619,466.818787 17.305239,466.637573 25.741905,466.766815 
	C25.354900,472.937653 24.295351,478.788330 24.148115,484.661865 
	C24.048416,488.639038 23.226574,490.349274 18.896139,490.073608 
	C13.264229,489.715057 7.592075,489.988617 1.468621,489.995056 
	C1.000000,482.645752 1.000000,475.291504 1.000000,467.468628 
z"/>
<path fill="#C97629" opacity="1.000000" stroke="none" 
	d="
M70.946976,465.986084 
	C71.613480,462.591827 72.279984,459.197540 73.242859,455.165283 
	C75.037224,450.700378 76.535210,446.873444 78.292244,442.845825 
	C79.723122,440.768005 80.894951,438.890930 82.355728,436.852173 
	C86.437958,432.824860 90.231232,428.959229 94.359085,425.035522 
	C96.506668,423.354584 98.319672,421.731689 100.425201,419.948242 
	C103.534065,416.185333 106.350403,412.582947 109.166748,408.980591 
	C110.790588,405.251892 112.414413,401.523224 114.318680,397.144836 
	C115.370163,388.652710 116.141190,380.810272 116.912216,372.967804 
	C117.246590,369.305389 117.580963,365.643005 117.938126,361.126892 
	C118.289520,356.841095 118.618134,353.408966 118.974854,349.545959 
	C120.024010,341.758789 121.045067,334.402466 122.317108,326.759583 
	C123.346550,322.687256 124.125000,318.901489 125.066193,314.761963 
	C126.787804,309.249603 128.346680,304.091034 129.976929,298.566589 
	C132.059875,292.152252 134.071442,286.103790 136.332520,279.809998 
	C138.018188,275.679840 139.454361,271.794983 140.890533,267.910126 
	C147.799561,255.542801 153.807526,242.549072 161.854904,230.973114 
	C171.077148,217.707153 181.556671,205.191986 192.497894,193.276138 
	C205.536850,179.075714 219.645996,165.857941 234.072235,152.099762 
	C249.876770,151.989227 264.900574,151.993393 279.994019,151.996552 
	C280.063629,151.995529 280.202271,152.008438 280.145660,152.474075 
	C280.033813,176.260529 279.978577,199.581329 279.513855,222.944366 
	C277.655579,223.297897 276.218201,223.683319 274.756226,223.909744 
	C231.475357,230.613480 197.254562,272.893738 199.007324,315.446289 
	C199.313248,320.018005 199.455658,324.152527 199.990036,328.235718 
	C202.518539,347.555969 210.490601,364.367432 223.975876,378.405365 
	C228.288620,382.894836 233.316574,386.697266 238.107407,391.074677 
	C238.484833,391.549988 238.772125,391.764679 239.041763,391.952454 
	C239.024124,391.925507 239.074799,391.885529 239.082153,392.238617 
	C241.771881,395.225128 244.165405,398.260956 247.183289,400.426849 
	C267.256622,414.833038 289.203278,422.257019 314.345490,419.137817 
	C333.065186,416.815399 349.710175,409.907013 363.684601,397.594604 
	C386.606415,377.398987 397.882629,352.047607 396.146881,320.999390 
	C395.080414,301.923584 388.607391,285.182190 377.332520,270.139587 
	C375.163391,267.245636 371.653290,265.356842 368.514099,262.807251 
	C367.233063,261.319946 366.134827,260.076019 365.176117,258.732483 
	C350.140594,237.661407 329.116455,226.833939 304.018616,222.471710 
	C304.013214,198.665268 304.020691,175.323318 304.028168,151.981369 
	C311.668823,150.640167 316.972626,153.906906 322.206085,159.438873 
	C335.599701,173.596451 349.836609,186.952423 363.378998,200.974030 
	C380.170013,218.359222 392.617554,238.619171 402.146729,260.811981 
	C410.787354,280.935516 416.060669,301.932709 418.792725,323.529510 
	C420.977936,340.803101 421.026550,358.220154 420.028717,375.630249 
	C419.076477,392.244507 424.765839,406.595703 435.661926,418.949982 
	C437.726532,421.290863 440.312042,423.193848 442.760681,425.170685 
	C452.041229,432.663177 455.428375,444.112732 451.494720,454.933838 
	C446.462738,468.776245 434.694946,476.996460 419.862549,476.996918 
	C306.216125,477.000275 192.569687,476.996185 78.923271,477.018372 
	C76.784882,477.018799 74.646561,477.312775 71.989532,477.751678 
	C71.470848,478.033569 71.006760,477.993073 71.006760,477.993073 
	C70.767235,474.899414 70.527710,471.805725 70.235474,468.086731 
	C70.437492,466.969604 70.692238,466.477844 70.946976,465.986084 
z"/>
<path fill="#C97629" opacity="1.000000" stroke="none" 
	d="
M243.954575,104.948029 
	C230.551865,88.042213 216.963242,71.279243 203.820190,54.173901 
	C196.605057,44.783585 196.418747,32.560543 203.741043,22.551050 
	C209.029343,15.321977 216.412613,12.285980 224.793777,12.110643 
	C242.257431,11.745297 259.735077,11.914491 277.203979,12.117457 
	C279.201172,12.140661 281.614380,13.326406 283.092377,14.745973 
	C289.921387,21.304993 296.487762,28.137407 303.417053,35.143646 
	C306.889404,28.184977 310.012695,21.603260 313.487335,15.212575 
	C314.257477,13.796090 316.259186,12.155019 317.709229,12.140330 
	C332.674591,11.988721 347.643097,12.150039 362.408813,12.598950 
	C349.059082,13.036534 344.646698,19.200258 348.827423,31.771500 
	C352.103943,41.623909 348.256073,49.670898 342.355042,57.094444 
	C332.455719,69.547867 322.328156,81.820404 312.478394,94.312355 
	C309.676880,97.865364 307.504669,101.914581 304.643311,105.813904 
	C303.158051,105.949738 302.073334,106.007919 300.523132,106.013031 
	C283.808838,105.914207 267.559723,105.904022 251.311432,105.784607 
	C248.857239,105.766563 246.406769,105.239594 243.954575,104.948029 
z"/>
<path fill="#B06328" opacity="1.000000" stroke="none" 
	d="
M305.043854,105.736237 
	C307.504669,101.914581 309.676880,97.865364 312.478394,94.312355 
	C322.328156,81.820404 332.455719,69.547867 342.355042,57.094444 
	C348.256073,49.670898 352.103943,41.623909 348.827423,31.771500 
	C344.646698,19.200258 349.059082,13.036534 362.658997,12.957663 
	C374.480164,13.365535 382.615082,21.281439 385.119507,32.109131 
	C387.524750,42.508286 383.365784,50.489094 377.364014,58.071789 
	C365.508118,73.050652 353.552094,87.950256 341.626678,102.874023 
	C341.215729,103.388321 340.689362,103.810410 339.835754,104.685501 
	C338.975220,105.380325 338.495697,105.665108 337.546814,105.929642 
	C326.399597,105.851677 315.721710,105.793961 305.043854,105.736237 
z"/>
<path fill="#F19920" opacity="1.000000" stroke="none" 
	d="
M129.905563,298.932434 
	C128.346680,304.091034 126.787804,309.249603 124.608047,314.734253 
	C102.381859,315.054962 80.776466,315.020721 59.171394,315.090240 
	C57.072792,315.096985 54.976254,315.745361 52.878761,316.095886 
	C46.322731,315.730652 39.735466,315.645538 33.219704,314.919098 
	C27.053038,314.231598 24.286709,310.519623 24.558762,303.446594 
	C29.133223,303.351471 33.224434,303.917755 37.316841,303.926483 
	C49.364849,303.952209 47.688770,305.380829 48.068371,293.503265 
	C48.211060,289.038666 49.419945,284.608124 50.561874,280.136719 
	C52.938789,280.129578 54.896584,280.147705 56.951447,280.532043 
	C57.701290,283.213196 58.692104,285.494690 58.925198,287.851135 
	C59.249889,291.133453 59.294540,294.502838 58.941368,297.779144 
	C58.397823,302.821533 60.812698,304.233124 65.313957,304.010712 
	C68.950943,303.830994 72.629318,303.703796 76.243301,304.043274 
	C80.717560,304.463623 82.425659,303.072235 82.131287,298.334290 
	C81.745895,292.131409 81.188866,285.720184 85.559746,280.133240 
	C87.937218,280.127441 89.895470,280.147034 91.949844,280.533081 
	C92.697914,283.227875 93.773483,285.531006 93.913612,287.889771 
	C94.205307,292.799805 94.001808,297.739227 94.001808,303.974274 
	C100.621834,303.974274 106.409706,303.704987 112.158333,304.064026 
	C116.354271,304.326141 117.160881,302.609772 117.103882,298.865875 
	C117.006874,292.494934 115.729492,285.830688 120.557480,280.130127 
	C122.936218,280.126892 124.895454,280.148224 126.944901,280.535889 
	C127.690063,283.886292 128.481644,286.848602 128.961487,289.860565 
	C129.439102,292.858582 129.603714,295.906433 129.905563,298.932434 
z"/>
<path fill="#FFCB5B" opacity="1.000000" stroke="none" 
	d="
M304.643311,105.813904 
	C315.721710,105.793961 326.399597,105.851677 337.544800,106.401657 
	C337.902588,114.587326 339.497681,122.674561 332.471832,128.902405 
	C323.047394,128.998474 314.084747,129.069000 304.647675,129.096024 
	C277.091248,129.043152 250.009262,129.033768 222.927292,129.024368 
	C219.361084,118.512360 224.445892,108.991585 235.430359,106.407059 
	C232.222733,113.999084 234.049973,117.006927 241.895096,117.010002 
	C259.671326,117.016960 277.448334,117.093391 295.222809,116.916550 
	C297.634186,116.892548 301.735046,116.036591 302.080688,114.760574 
	C302.787170,112.152397 301.471466,108.996445 300.988617,106.066101 
	C302.073334,106.007919 303.158051,105.949738 304.643311,105.813904 
z"/>
<path fill="#FFCA5A" opacity="1.000000" stroke="none" 
	d="
M56.854382,280.165833 
	C54.896584,280.147705 52.938789,280.129578 50.080288,280.081085 
	C40.839554,280.042297 32.499519,280.033813 24.159489,280.025330 
	C24.549990,270.700897 28.881947,268.186798 38.120312,268.075531 
	C62.248455,267.784912 86.382423,267.979340 110.514069,267.977203 
	C120.333115,267.976349 130.152161,267.967285 140.430878,267.936035 
	C139.454361,271.794983 138.018188,275.679840 135.871689,279.793579 
	C132.392456,280.071472 129.623581,280.120483 126.854691,280.169556 
	C124.895454,280.148224 122.936218,280.126892 120.076187,280.077087 
	C110.068161,280.087921 100.960945,280.127289 91.853722,280.166626 
	C89.895470,280.147034 87.937218,280.127441 85.078293,280.078674 
	C75.069878,280.088318 65.962128,280.127106 56.854382,280.165833 
z"/>
<path fill="#F19920" opacity="1.000000" stroke="none" 
	d="
M118.946747,349.976837 
	C118.618134,353.408966 118.289520,356.841095 117.913185,360.720459 
	C104.452347,361.421143 91.039658,361.833344 77.625984,361.867889 
	C69.691833,361.888336 61.756145,361.311859 53.370964,360.994720 
	C50.971802,357.593292 49.022831,354.200989 47.588860,350.415436 
	C54.266182,350.014984 60.436127,349.820801 66.587914,350.071747 
	C70.189072,350.218628 71.050415,348.844666 71.082397,345.458008 
	C71.140129,339.344299 71.744637,333.235809 72.558876,327.106750 
	C75.627075,327.100098 78.257195,327.111847 80.976105,327.523621 
	C81.376862,333.858643 81.887184,339.792511 81.920998,345.729065 
	C81.939171,348.919037 82.819061,350.208496 86.161781,350.060303 
	C91.306480,349.832214 96.479607,349.796356 101.619888,350.069794 
	C105.267601,350.263794 106.032509,348.761017 106.072556,345.429657 
	C106.145935,339.325165 106.742302,333.226990 107.558655,327.106018 
	C110.626503,327.105347 113.256310,327.124878 115.929581,327.552246 
	C116.319481,333.849640 116.555710,339.749207 117.088684,345.621826 
	C117.224419,347.117401 118.301941,348.527466 118.946747,349.976837 
z"/>
<path fill="#F6B545" opacity="1.000000" stroke="none" 
	d="
M222.979462,129.377502 
	C250.009262,129.033768 277.091248,129.043152 304.604675,129.483032 
	C304.192749,133.569153 302.261017,137.434494 306.986511,140.228577 
	C306.989929,140.439484 306.983002,140.861282 306.983002,140.861282 
	C306.240448,140.906281 305.497925,140.951263 303.914398,140.996765 
	C295.364716,141.014313 287.655975,141.031326 279.482239,141.029846 
	C267.341980,141.034348 255.666733,141.057343 243.991486,141.080338 
	C234.589127,141.758316 227.115341,138.874771 222.979462,129.377502 
z"/>
<path fill="#FFCB5B" opacity="1.000000" stroke="none" 
	d="
M115.886108,327.144379 
	C113.256310,327.124878 110.626503,327.105347 107.078369,327.060028 
	C97.735802,327.063995 89.311562,327.093781 80.887321,327.123596 
	C78.257195,327.111847 75.627075,327.100098 72.078552,327.061096 
	C63.154778,327.029480 55.149403,327.025146 47.144032,327.020813 
	C47.640949,322.884979 48.162239,318.761993 52.736950,316.401062 
	C54.976254,315.745361 57.072792,315.096985 59.171394,315.090240 
	C80.776466,315.020721 102.381859,315.054962 124.445312,315.088013 
	C124.125000,318.901489 123.346550,322.687256 121.876175,326.744751 
	C119.418198,327.059143 117.652153,327.101746 115.886108,327.144379 
z"/>
<path fill="#FFE278" opacity="1.000000" stroke="none" 
	d="
M300.523132,106.013031 
	C301.471466,108.996445 302.787170,112.152397 302.080688,114.760574 
	C301.735046,116.036591 297.634186,116.892548 295.222809,116.916550 
	C277.448334,117.093391 259.671326,117.016960 241.895096,117.010002 
	C234.049973,117.006927 232.222733,113.999084 235.803436,106.450630 
	C238.338211,105.737061 240.725266,105.351349 243.533447,104.956833 
	C246.406769,105.239594 248.857239,105.766563 251.311432,105.784607 
	C267.559723,105.904022 283.808838,105.914207 300.523132,106.013031 
z"/>
<path fill="#F6B646" opacity="1.000000" stroke="none" 
	d="
M332.933655,128.876877 
	C339.497681,122.674561 337.902588,114.587326 338.014160,106.421890 
	C338.495697,105.665108 338.975220,105.380325 339.718323,105.001068 
	C348.524658,105.077927 356.078033,106.630821 360.296356,115.579193 
	C364.894440,125.333023 360.155853,136.729523 349.397644,139.588348 
	C351.298187,131.824493 349.290039,129.031265 341.752838,128.993958 
	C338.812958,128.979416 335.873383,128.917313 332.933655,128.876877 
z"/>
<path fill="#F6B545" opacity="1.000000" stroke="none" 
	d="
M24.098698,280.488800 
	C32.499519,280.033813 40.839554,280.042297 49.661171,280.106384 
	C49.419945,284.608124 48.211060,289.038666 48.068371,293.503265 
	C47.688770,305.380829 49.364849,303.952209 37.316841,303.926483 
	C33.224434,303.917755 29.133223,303.351471 24.621492,303.045624 
	C24.146982,295.684967 24.092443,288.318604 24.098698,280.488800 
z"/>
<path fill="#F6B545" opacity="1.000000" stroke="none" 
	d="
M47.087189,327.485138 
	C55.149403,327.025146 63.154778,327.029480 71.640472,327.079468 
	C71.744637,333.235809 71.140129,339.344299 71.082397,345.458008 
	C71.050415,348.844666 70.189072,350.218628 66.587914,350.071747 
	C60.436127,349.820801 54.266182,350.014984 47.648827,350.035156 
	C47.139305,342.681915 47.084824,335.315674 47.087189,327.485138 
z"/>
<path fill="#F19920" opacity="1.000000" stroke="none" 
	d="
M332.471832,128.902405 
	C335.873383,128.917313 338.812958,128.979416 341.752838,128.993958 
	C349.290039,129.031265 351.298187,131.824493 349.025757,139.590088 
	C348.988861,139.983368 348.997864,139.999619 348.709106,139.988968 
	C347.943512,140.235580 347.466675,140.492844 346.989868,140.750092 
	C344.951111,140.827972 342.912323,140.905869 340.436218,141.034393 
	C339.825439,141.060410 339.651978,141.035782 338.921997,140.687134 
	C327.904694,140.247971 317.443909,140.132828 306.983124,140.017670 
	C302.261017,137.434494 304.192749,133.569153 305.079132,129.526520 
	C314.084747,129.069000 323.047394,128.998474 332.471832,128.902405 
z"/>
<path fill="#B06328" opacity="1.000000" stroke="none" 
	d="
M243.890808,141.394043 
	C255.666733,141.057343 267.341980,141.034348 279.503052,141.482605 
	C279.967377,145.301758 279.945892,148.649658 279.924377,151.997559 
	C264.900574,151.993393 249.876770,151.989227 234.378448,151.971008 
	C237.199310,148.540543 240.494705,145.124146 243.890808,141.394043 
z"/>
<path fill="#F6B646" opacity="1.000000" stroke="none" 
	d="
M347.291687,140.826752 
	C347.466675,140.492844 347.943512,140.235580 348.702454,139.983047 
	C348.520905,140.292999 348.057190,140.598206 347.291687,140.826752 
z"/>
<path fill="#F09921" opacity="1.000000" stroke="none" 
	d="
M279.994019,151.996552 
	C279.945892,148.649658 279.967377,145.301758 279.968079,141.501099 
	C287.655975,141.031326 295.364716,141.014313 303.542694,141.016174 
	C304.004395,144.380173 303.996826,147.725296 304.008698,151.525879 
	C304.020691,175.323318 304.013214,198.665268 303.592712,222.488586 
	C299.442932,222.656326 295.706207,222.342712 291.984741,222.014542 
	C292.000000,222.000000 291.971008,222.030655 291.980621,221.559204 
	C291.993103,201.940643 291.996521,182.793518 291.998535,163.646393 
	C291.999756,152.028717 291.998779,152.028717 280.202271,152.008438 
	C280.202271,152.008438 280.063629,151.995529 279.994019,151.996552 
z"/>
<path fill="#C67429" opacity="1.000000" stroke="none" 
	d="
M500.704285,496.015869 
	C496.430145,500.900513 490.122101,501.865540 484.059174,501.880371 
	C413.022247,502.054199 341.984772,501.978607 270.477539,501.676514 
	C270.007629,501.384155 269.998779,500.938660 269.998779,500.938660 
	C271.903015,500.625763 273.807007,500.040741 275.711487,500.039337 
	C339.992096,499.991913 404.272705,499.999756 468.553345,500.000244 
	C479.306915,500.000336 490.195007,501.074554 500.704285,496.015869 
z"/>
<path fill="#DE8D2C" opacity="1.000000" stroke="none" 
	d="
M269.530334,500.947998 
	C269.998779,500.938660 270.007629,501.384155 270.014954,501.606873 
	C256.724152,501.886353 243.426056,501.988251 230.127930,501.991669 
	C186.398361,502.002960 142.668808,501.978577 98.469795,501.692902 
	C98.000343,501.417938 98.001907,500.995178 98.001907,500.995178 
	C155.021896,500.982544 212.041870,500.969940 269.530334,500.947998 
z"/>
<path fill="#F4B141" opacity="1.000000" stroke="none" 
	d="
M71.007088,478.456024 
	C71.006760,477.993073 71.470848,478.033569 71.701180,478.064575 
	C73.305847,481.802246 74.680176,485.508911 76.149124,489.569092 
	C74.770912,489.922577 73.298088,489.922577 71.007416,489.922577 
	C71.007416,486.055695 71.007416,482.487335 71.007088,478.456024 
z"/>
<path fill="#F4A631" opacity="1.000000" stroke="none" 
	d="
M306.986511,140.228577 
	C317.443909,140.132828 327.904694,140.247971 338.662476,140.645966 
	C328.612762,140.939026 318.266052,140.949249 307.451172,140.910370 
	C306.983002,140.861282 306.989929,140.439484 306.986511,140.228577 
z"/>
<path fill="#F4A631" opacity="1.000000" stroke="none" 
	d="
M97.585266,500.978729 
	C98.001907,500.995178 98.000343,501.417938 98.005745,501.629242 
	C95.638733,501.883759 93.266319,501.926971 90.456009,501.892303 
	C90.550636,501.532104 91.083160,501.249786 91.928368,500.905426 
	C93.883575,500.883026 95.526108,500.922638 97.585266,500.978729 
z"/>
<path fill="#C67429" opacity="1.000000" stroke="none" 
	d="
M504.726501,493.014221 
	C504.290070,493.680969 503.485077,494.341705 502.350891,495.049988 
	C502.800446,494.401123 503.579193,493.704651 504.726501,493.014221 
z"/>
<path fill="#C67429" opacity="1.000000" stroke="none" 
	d="
M506.616272,491.120911 
	C506.714661,491.295471 506.619934,491.606873 506.272095,492.007690 
	C506.052216,491.768433 506.186890,491.488678 506.616272,491.120911 
z"/>
<path fill="#C67429" opacity="1.000000" stroke="none" 
	d="
M507.829315,489.129089 
	C507.892822,489.326111 507.711731,489.624573 507.276367,490.012817 
	C507.209625,489.811920 507.397186,489.521240 507.829315,489.129089 
z"/>
<path fill="#C67429" opacity="1.000000" stroke="none" 
	d="
M508.622406,488.119690 
	C508.720825,488.294983 508.628662,488.602600 508.284241,488.991150 
	C508.064667,488.749695 508.197937,488.476349 508.622406,488.119690 
z"/>
<path fill="#FFCB5B" opacity="1.000000" stroke="none" 
	d="
M108.702362,408.957367 
	C106.350403,412.582947 103.534065,416.185333 99.966187,419.910339 
	C96.775620,420.059204 94.336601,420.085419 91.463455,420.088409 
	C88.723709,420.088196 86.418076,420.111206 83.638474,420.092285 
	C74.409966,420.069519 65.655434,420.088684 56.468872,420.084259 
	C53.729454,420.082550 51.422070,420.104401 48.636375,420.080963 
	C40.155430,420.031616 32.152798,420.027527 24.150166,420.023438 
	C23.424900,415.615021 25.676563,412.512573 28.766605,409.414490 
	C51.709740,408.751556 74.550262,408.362274 97.392281,408.109192 
	C101.004021,408.069153 104.622581,408.643768 108.702362,408.957367 
z"/>
<path fill="#F6B545" opacity="1.000000" stroke="none" 
	d="
M34.149471,374.381165 
	C37.030910,373.691101 40.066124,373.092651 43.106514,373.065094 
	C48.879333,373.012756 54.655117,373.287262 60.718876,373.731598 
	C60.340855,379.857483 59.212841,385.673462 59.158497,391.499481 
	C59.118160,395.824005 58.061943,397.455627 53.586830,397.063965 
	C49.149059,396.675568 44.642345,396.810059 40.181854,397.033875 
	C36.896076,397.198730 35.759392,395.985321 35.948162,392.749390 
	C36.169621,388.953064 36.194477,385.120026 35.924942,381.329926 
	C35.766579,379.102997 34.870071,376.928558 34.149471,374.381165 
z"/>
<path fill="#F6B545" opacity="1.000000" stroke="none" 
	d="
M69.148346,374.386200 
	C72.028847,373.694855 75.062973,373.093597 78.102448,373.065277 
	C83.875679,373.011383 89.651970,373.285431 95.716995,373.727417 
	C95.338264,379.851135 94.211868,385.665985 94.152191,391.491760 
	C94.108063,395.800293 93.081375,397.460632 88.591209,397.064514 
	C84.153923,396.673035 79.646881,396.811920 75.186089,397.033386 
	C71.912109,397.195923 70.751465,396.004150 70.942139,392.756805 
	C71.165031,388.960571 71.188110,385.127441 70.919266,381.337158 
	C70.761269,379.109467 69.867325,376.933990 69.148346,374.386200 
z"/>
<path fill="#F6B545" opacity="1.000000" stroke="none" 
	d="
M116.455429,372.982910 
	C116.141190,380.810272 115.370163,388.652710 114.327240,396.753296 
	C105.106659,396.734009 106.088951,398.513214 105.976242,388.842804 
	C105.916046,383.678070 106.997803,378.269226 102.950211,373.513672 
	C107.238014,373.111664 111.618332,373.054840 116.455429,372.982910 
z"/>
<path fill="#F6B545" opacity="1.000000" stroke="none" 
	d="
M34.132881,467.380005 
	C42.795444,466.837250 51.620293,466.641998 60.733727,466.756958 
	C60.350342,473.203064 59.397320,479.326202 59.118156,485.479950 
	C58.965405,488.847076 58.167004,490.245239 54.602615,490.050079 
	C49.809994,489.787628 44.984570,489.819855 40.187862,490.041840 
	C36.903629,490.193817 35.758015,489.000275 35.947777,485.757507 
	C36.170116,481.958099 36.195362,478.121643 35.924225,474.328583 
	C35.764984,472.100800 34.863045,469.926056 34.132881,467.380005 
z"/>
<path fill="#FABB4A" opacity="1.000000" stroke="none" 
	d="
M70.613808,465.994537 
	C70.692238,466.477844 70.437492,466.969604 70.060379,467.714417 
	C69.393600,467.813965 68.849197,467.660492 68.150894,467.259796 
	C68.758209,466.676056 69.519424,466.339539 70.613808,465.994537 
z"/>
<path fill="#F19921" opacity="1.000000" stroke="none" 
	d="
M49.114689,420.126221 
	C51.422070,420.104401 53.729454,420.082550 56.555023,420.455994 
	C57.717655,423.168304 58.718292,425.454224 58.923801,427.809509 
	C59.239208,431.424194 59.169811,435.096039 58.959366,438.725983 
	C58.775627,441.895294 59.787807,443.214081 63.136505,443.065674 
	C68.092621,442.846100 73.066742,443.032806 78.033203,443.046509 
	C76.535210,446.873444 75.037224,450.700378 73.269928,454.763977 
	C61.706631,454.997803 50.411922,455.063995 39.119106,454.947174 
	C36.002728,454.914917 32.891994,454.337341 29.350340,453.997406 
	C27.302341,450.602112 25.682678,447.219360 24.580450,443.430145 
	C30.558237,443.017822 36.035553,442.745331 41.473518,443.091339 
	C45.749916,443.363434 47.141735,442.156036 47.164303,437.649048 
	C47.193569,431.804993 48.409561,425.966888 49.114689,420.126221 
z"/>
<path fill="#F6B545" opacity="1.000000" stroke="none" 
	d="
M48.636375,420.080963 
	C48.409561,425.966888 47.193569,431.804993 47.164303,437.649048 
	C47.141735,442.156036 45.749916,443.363434 41.473518,443.091339 
	C36.035553,442.745331 30.558237,443.017822 24.642313,443.034729 
	C24.134970,435.680878 24.083197,428.315979 24.090794,420.487274 
	C32.152798,420.027527 40.155430,420.031616 48.636375,420.080963 
z"/>
<path fill="#B16428" opacity="1.000000" stroke="none" 
	d="
M368.761780,263.004333 
	C371.653290,265.356842 375.163391,267.245636 377.332520,270.139587 
	C388.607391,285.182190 395.080414,301.923584 396.146881,320.999390 
	C397.882629,352.047607 386.606415,377.398987 363.684601,397.594604 
	C349.710175,409.907013 333.065186,416.815399 314.345490,419.137817 
	C289.203278,422.257019 267.256622,414.833038 247.183289,400.426849 
	C244.165405,398.260956 241.771881,395.225128 239.429733,392.294373 
	C255.712173,402.089447 272.680115,408.825165 292.438110,407.983948 
	C298.997437,407.475830 305.240753,407.593781 311.160614,406.267761 
	C330.284149,401.984009 346.923248,393.014343 360.175385,378.314850 
	C376.392059,360.327057 385.175629,339.410431 384.882935,314.556305 
	C384.108826,307.799957 383.645264,301.404633 382.520416,295.127747 
	C380.419037,283.401245 374.974152,273.017548 368.761780,263.004333 
z"/>
<path fill="#F6B545" opacity="1.000000" stroke="none" 
	d="
M291.974030,407.948914 
	C272.680115,408.825165 255.712173,402.089447 239.422363,391.941284 
	C239.074799,391.885529 239.024124,391.925507 238.950348,391.696777 
	C238.590134,391.250061 238.303696,391.032074 238.017273,390.814087 
	C233.316574,386.697266 228.288620,382.894836 223.975876,378.405365 
	C210.490601,364.367432 202.518539,347.555969 199.990036,328.235718 
	C199.455658,324.152527 199.313248,320.018005 199.462997,315.460083 
	C203.292160,315.017548 206.648529,315.022034 210.171143,315.402435 
	C210.555222,316.903168 210.769135,318.028778 210.991562,319.152679 
	C212.679825,327.683594 213.201950,336.662689 216.274155,344.662354 
	C226.214417,370.545532 245.246628,386.905426 272.042084,393.903839 
	C278.532715,395.599030 285.356476,396.019043 292.017395,397.481323 
	C291.996521,401.274445 291.985260,404.611694 291.974030,407.948914 
z"/>
<path fill="#FFE179" opacity="1.000000" stroke="none" 
	d="
M210.004913,315.026550 
	C206.648529,315.022034 203.292160,315.017548 199.480103,314.999268 
	C197.254562,272.893738 231.475357,230.613480 274.756226,223.909744 
	C276.218201,223.683319 277.655579,223.297897 279.967834,222.973145 
	C284.544525,222.650024 288.257751,222.340347 291.971008,222.030670 
	C291.971008,222.030655 292.000000,222.000000 291.991974,222.472198 
	C291.979492,226.628799 291.975037,230.313202 291.511444,233.995071 
	C276.485321,233.343018 263.153076,237.569473 250.717804,244.715622 
	C235.607254,253.399124 224.687790,265.828674 217.408661,281.799438 
	C212.543961,292.472778 211.339920,303.703247 210.004913,315.026550 
z"/>
<path fill="#F6B545" opacity="1.000000" stroke="none" 
	d="
M291.970581,233.997620 
	C291.975037,230.313202 291.979492,226.628799 291.976685,222.486725 
	C295.706207,222.342712 299.442932,222.656326 303.605591,222.953079 
	C329.116455,226.833939 350.140594,237.661407 365.176117,258.732483 
	C366.134827,260.076019 367.233063,261.319946 368.514099,262.807251 
	C374.974152,273.017548 380.419037,283.401245 382.520416,295.127747 
	C383.645264,301.404633 384.108826,307.799957 384.434326,314.568909 
	C380.365509,315.027557 376.733185,315.059143 373.067139,314.622803 
	C373.816986,270.627411 335.312653,232.719498 291.970581,233.997620 
z"/>
<path fill="#F6B545" opacity="1.000000" stroke="none" 
	d="
M291.980621,221.559219 
	C288.257751,222.340347 284.544525,222.650024 280.377319,222.930923 
	C279.978577,199.581329 280.033813,176.260529 280.145660,152.474075 
	C291.998779,152.028717 291.999756,152.028717 291.998535,163.646393 
	C291.996521,182.793518 291.993103,201.940643 291.980621,221.559219 
z"/>
<path fill="#F6B545" opacity="1.000000" stroke="none" 
	d="
M78.292252,442.845825 
	C73.066742,443.032806 68.092621,442.846100 63.136505,443.065674 
	C59.787807,443.214081 58.775627,441.895294 58.959366,438.725983 
	C59.169811,435.096039 59.239208,431.424194 58.923801,427.809509 
	C58.718292,425.454224 57.717655,423.168304 56.987061,420.479553 
	C65.655434,420.088684 74.409966,420.069519 83.558029,420.463623 
	C83.323303,426.255890 82.695038,431.634857 82.066780,437.013824 
	C80.894951,438.890930 79.723122,440.768005 78.292252,442.845825 
z"/>
<path fill="#F19921" opacity="1.000000" stroke="none" 
	d="
M82.355728,436.852173 
	C82.695038,431.634857 83.323303,426.255890 84.032005,420.505554 
	C86.418076,420.111206 88.723709,420.088196 91.533386,420.420044 
	C92.699791,422.214478 93.362152,423.654022 94.024506,425.093597 
	C90.231232,428.959229 86.437958,432.824860 82.355728,436.852173 
z"/>
<path fill="#F4B141" opacity="1.000000" stroke="none" 
	d="
M115.929581,327.552246 
	C117.652153,327.101746 119.418198,327.059143 121.625183,327.031311 
	C121.045067,334.402466 120.024010,341.758789 118.974854,349.545959 
	C118.301941,348.527466 117.224419,347.117401 117.088684,345.621826 
	C116.555710,339.749207 116.319481,333.849640 115.929581,327.552246 
z"/>
<path fill="#F6B545" opacity="1.000000" stroke="none" 
	d="
M126.944901,280.535889 
	C129.623581,280.120483 132.392456,280.071472 135.622177,280.038879 
	C134.071442,286.103790 132.059875,292.152252 129.976929,298.566589 
	C129.603714,295.906433 129.439102,292.858582 128.961487,289.860565 
	C128.481644,286.848602 127.690063,283.886292 126.944901,280.535889 
z"/>
<path fill="#F6B545" opacity="1.000000" stroke="none" 
	d="
M94.359085,425.035522 
	C93.362152,423.654022 92.699791,422.214478 91.967506,420.443237 
	C94.336601,420.085419 96.775620,420.059204 99.673660,420.070923 
	C98.319672,421.731689 96.506668,423.354584 94.359085,425.035522 
z"/>
<path fill="#B16428" opacity="1.000000" stroke="none" 
	d="
M238.107391,391.074707 
	C238.303696,391.032074 238.590134,391.250061 238.967987,391.723694 
	C238.772125,391.764679 238.484833,391.549988 238.107391,391.074707 
z"/>
<path fill="#F6B545" opacity="1.000000" stroke="none" 
	d="
M56.951447,280.532074 
	C65.962128,280.127106 75.069878,280.088318 84.659073,280.104126 
	C81.188866,285.720184 81.745895,292.131409 82.131287,298.334290 
	C82.425659,303.072235 80.717560,304.463623 76.243301,304.043274 
	C72.629318,303.703796 68.950943,303.830994 65.313957,304.010712 
	C60.812698,304.233124 58.397823,302.821533 58.941368,297.779144 
	C59.294540,294.502838 59.249889,291.133453 58.925198,287.851135 
	C58.692104,285.494690 57.701290,283.213196 56.951447,280.532074 
z"/>
<path fill="#F6B545" opacity="1.000000" stroke="none" 
	d="
M91.949844,280.533081 
	C100.960945,280.127289 110.068161,280.087921 119.656677,280.101624 
	C115.729492,285.830688 117.006874,292.494934 117.103882,298.865875 
	C117.160881,302.609772 116.354271,304.326141 112.158333,304.064026 
	C106.409706,303.704987 100.621834,303.974274 94.001808,303.974274 
	C94.001808,297.739227 94.205307,292.799805 93.913612,287.889771 
	C93.773483,285.531006 92.697914,283.227875 91.949844,280.533081 
z"/>
<path fill="#F6B545" opacity="1.000000" stroke="none" 
	d="
M80.976105,327.523621 
	C89.311562,327.093781 97.735802,327.063995 106.640320,327.080200 
	C106.742302,333.226990 106.145935,339.325165 106.072556,345.429657 
	C106.032509,348.761017 105.267601,350.263794 101.619888,350.069794 
	C96.479607,349.796356 91.306480,349.832214 86.161781,350.060303 
	C82.819061,350.208496 81.939171,348.919037 81.920998,345.729065 
	C81.887184,339.792511 81.376862,333.858643 80.976105,327.523621 
z"/>
<path fill="#F19921" opacity="1.000000" stroke="none" 
	d="
M373.100861,315.090759 
	C376.733185,315.059143 380.365509,315.027557 384.446442,314.983337 
	C385.175629,339.410431 376.392059,360.327057 360.175385,378.314850 
	C346.923248,393.014343 330.284149,401.984009 311.160614,406.267761 
	C305.240753,407.593781 298.997437,407.475830 292.438110,407.983948 
	C291.985260,404.611694 291.996521,401.274445 292.439392,397.470337 
	C295.159241,396.676239 297.438599,396.254791 299.737213,396.036591 
	C320.316772,394.083008 337.890930,385.596924 351.763397,370.460144 
	C365.979462,354.948456 373.322479,336.373413 373.100861,315.090759 
z"/>
<path fill="#FFCB5B" opacity="1.000000" stroke="none" 
	d="
M373.067139,314.622803 
	C373.322479,336.373413 365.979462,354.948456 351.763397,370.460144 
	C337.890930,385.596924 320.316772,394.083008 299.737213,396.036591 
	C297.438599,396.254791 295.159241,396.676239 292.449005,397.014435 
	C285.356476,396.019043 278.532715,395.599030 272.042084,393.903839 
	C245.246628,386.905426 226.214417,370.545532 216.274155,344.662354 
	C213.201950,336.662689 212.679825,327.683594 210.991562,319.152679 
	C210.769135,318.028778 210.555222,316.903168 210.171143,315.402466 
	C211.339920,303.703247 212.543961,292.472778 217.408661,281.799438 
	C224.687790,265.828674 235.607254,253.399124 250.717804,244.715622 
	C263.153076,237.569473 276.485321,233.343018 291.511475,233.995071 
	C335.312653,232.719498 373.816986,270.627411 373.067139,314.622803 
M338.011536,342.205414 
	C338.029572,340.706665 337.987427,339.204407 338.074799,337.709717 
	C339.124359,319.758942 322.234741,303.118866 304.329956,303.824341 
	C295.728241,304.163269 287.022064,303.905212 278.472198,302.946045 
	C269.393677,301.927551 265.799255,292.462860 270.980927,284.921143 
	C273.929779,280.629120 278.463989,280.198059 282.923309,280.113800 
	C293.411957,279.915649 303.907013,280.081116 314.399170,280.034973 
	C322.181610,280.000763 325.939240,276.584137 326.001587,269.636505 
	C326.079926,260.911743 322.765625,257.261993 314.405029,257.019928 
	C310.794037,256.915375 307.177490,257.002411 303.530701,257.002411 
	C303.275269,255.570129 303.173340,254.758179 302.982422,253.967743 
	C301.847168,249.267426 299.081421,246.329208 294.071991,245.999084 
	C286.931061,245.528488 282.342499,247.573578 281.332550,252.818481 
	C280.503418,257.124603 277.761169,257.424805 274.659454,257.983032 
	C272.387268,258.391937 270.010040,258.487061 267.854095,259.229034 
	C251.360199,264.905609 241.201340,284.721283 246.594635,301.179169 
	C251.181854,315.177246 259.991577,324.494843 275.131866,325.981934 
	C284.363861,326.888702 293.704346,326.715973 302.997864,326.960846 
	C308.056427,327.094177 312.127747,328.768433 314.089783,333.792969 
	C317.373993,342.203308 312.236572,349.863800 303.099640,349.971741 
	C291.776093,350.105591 280.447571,349.877533 269.125580,350.067108 
	C262.177429,350.183472 257.629852,354.275848 257.039429,360.300598 
	C256.385162,366.976654 259.635620,371.447906 266.784729,373.032196 
	C269.977814,373.739777 273.389069,373.446564 276.596741,374.111725 
	C278.174866,374.438995 280.242615,375.592194 280.833618,376.927277 
	C283.099335,382.045532 287.000671,385.085541 292.186005,384.979370 
	C297.484833,384.870911 301.094177,381.779877 303.098511,376.399139 
	C303.623993,374.988403 305.521790,373.296082 306.948090,373.134552 
	C323.942352,371.209564 335.049469,360.598969 338.011536,342.205414 
z"/>
<path fill="#E78925" opacity="1.000000" stroke="none" 
	d="
M338.004547,342.661621 
	C335.049469,360.598969 323.942352,371.209564 306.948090,373.134552 
	C305.521790,373.296082 303.623993,374.988403 303.098511,376.399139 
	C301.094177,381.779877 297.484833,384.870911 292.186005,384.979370 
	C287.000671,385.085541 283.099335,382.045532 280.833618,376.927277 
	C280.242615,375.592194 278.174866,374.438995 276.596741,374.111725 
	C273.389069,373.446564 269.977814,373.739777 266.784729,373.032196 
	C259.635620,371.447906 256.385162,366.976654 257.039429,360.300598 
	C257.629852,354.275848 262.177429,350.183472 269.125580,350.067108 
	C280.447571,349.877533 291.776093,350.105591 303.099640,349.971741 
	C312.236572,349.863800 317.373993,342.203308 314.089783,333.792969 
	C312.127747,328.768433 308.056427,327.094177 302.997864,326.960846 
	C293.704346,326.715973 284.363861,326.888702 275.131866,325.981934 
	C259.991577,324.494843 251.181854,315.177246 246.594635,301.179169 
	C241.201340,284.721283 251.360199,264.905609 267.854095,259.229034 
	C270.010040,258.487061 272.387268,258.391937 274.659454,257.983032 
	C277.761169,257.424805 280.503418,257.124603 281.332550,252.818481 
	C282.342499,247.573578 286.931061,245.528488 294.071991,245.999084 
	C299.081421,246.329208 301.847168,249.267426 302.982422,253.967743 
	C303.173340,254.758179 303.275269,255.570129 303.530701,257.002411 
	C307.177490,257.002411 310.794037,256.915375 314.405029,257.019928 
	C322.765625,257.261993 326.079926,260.911743 326.001587,269.636505 
	C325.939240,276.584137 322.181610,280.000763 314.399170,280.034973 
	C303.907013,280.081116 293.411957,279.915649 282.923309,280.113800 
	C278.463989,280.198059 273.929779,280.629120 270.980927,284.921143 
	C265.799255,292.462860 269.393677,301.927551 278.472198,302.946045 
	C287.022064,303.905212 295.728241,304.163269 304.329956,303.824341 
	C322.234741,303.118866 339.124359,319.758942 338.074799,337.709717 
	C337.987427,339.204407 338.029572,340.706665 338.004547,342.661621 
z"/>
</svg>